<svg width="19" height="18" viewBox="0 0 19 18" fill="none" xmlns="http://www.w3.org/2000/svg">
<g clip-path="url(#clip0_2_159)">
<path d="M17.0869 0.564743H1.91068C1.90593 0.564743 1.90059 0.564743 1.89465 0.564743C1.18274 0.564743 0.605023 1.10699 0.59671 1.77918V16.2197C0.605023 16.8924 1.18274 17.4352 1.89465 17.4352C1.90059 17.4352 1.90593 17.4352 1.91187 17.4352H17.0851C17.0899 17.4352 17.0958 17.4352 17.1018 17.4352C17.8143 17.4352 18.3932 16.8936 18.4045 16.2208V16.2197V1.78031C18.3932 1.10699 17.8143 0.564743 17.1012 0.564743C17.0952 0.564743 17.0899 0.564743 17.084 0.564743H17.0869ZM5.87812 14.9411H3.23355V6.89118H5.87812V14.9411ZM4.55643 5.78981C3.71033 5.78981 3.02515 5.14012 3.02515 4.33912C3.02515 3.53812 3.71093 2.88843 4.55643 2.88843C5.40193 2.88843 6.08771 3.53755 6.08771 4.33855C6.08771 4.33912 6.08771 4.33968 6.08771 4.34081C6.08771 5.14124 5.40252 5.79037 4.55762 5.79037C4.55702 5.79037 4.55643 5.79037 4.55583 5.79037L4.55643 5.78981ZM15.7676 14.9411H13.1308V11.0267C13.1308 10.0929 13.1106 8.89199 11.7568 8.89199C10.3817 8.89199 10.1721 9.90787 10.1721 10.9581V14.9417H7.53527V6.89174H10.0682V7.98918H10.1026C10.5943 7.20449 11.4837 6.68699 12.5008 6.68699C12.537 6.68699 12.5726 6.68755 12.6083 6.68868H12.6029C15.2748 6.68868 15.7688 8.3548 15.7688 10.5232V14.9417L15.7676 14.9411Z" fill="#AE654C" stroke="#AE654C"/>
</g>
<defs>
<clipPath id="clip0_2_159">
<rect width="19" height="18" fill="white"/>
</clipPath>
</defs>
</svg>
